<mxfile host="app.diagrams.net" modified="2020-09-16T22:56:13.982Z" agent="5.0 (Windows NT 10.0; Win64; x64) AppleWebKit/537.36 (KHTML, like Gecko) Chrome/85.0.4183.102 Safari/537.36" etag="AM6-Q_gRgdgCQu4_yJvn" version="13.7.2" type="github">
  <diagram id="R2lEEEUBdFMjLlhIrx00" name="Page-1">
    <mxGraphModel dx="2272" dy="713" grid="1" gridSize="10" guides="1" tooltips="1" connect="1" arrows="0" fold="1" page="1" pageScale="1" pageWidth="850" pageHeight="1100" math="0" shadow="0" extFonts="Permanent Marker^https://fonts.googleapis.com/css?family=Permanent+Marker">
      <root>
        <mxCell id="0" />
        <mxCell id="1" parent="0" />
        <mxCell id="4S39HdtD1xha4Gsc1qkG-1" value="Department" style="rounded=0;whiteSpace=wrap;html=1;" parent="1" vertex="1">
          <mxGeometry x="100" y="120" width="120" height="60" as="geometry" />
        </mxCell>
        <mxCell id="4S39HdtD1xha4Gsc1qkG-9" value="" style="edgeStyle=orthogonalEdgeStyle;rounded=0;orthogonalLoop=1;jettySize=auto;html=1;endArrow=none;endFill=0;" parent="1" source="4S39HdtD1xha4Gsc1qkG-2" target="4S39HdtD1xha4Gsc1qkG-7" edge="1">
          <mxGeometry relative="1" as="geometry" />
        </mxCell>
        <mxCell id="4S39HdtD1xha4Gsc1qkG-2" value="Employee" style="rounded=0;whiteSpace=wrap;html=1;" parent="1" vertex="1">
          <mxGeometry x="570" y="110" width="120" height="60" as="geometry" />
        </mxCell>
        <mxCell id="4S39HdtD1xha4Gsc1qkG-66" style="edgeStyle=none;rounded=0;orthogonalLoop=1;jettySize=auto;html=1;exitX=1;exitY=0.5;exitDx=0;exitDy=0;entryX=0;entryY=0.5;entryDx=0;entryDy=0;endArrow=none;endFill=0;" parent="1" source="4S39HdtD1xha4Gsc1qkG-4" target="4S39HdtD1xha4Gsc1qkG-65" edge="1">
          <mxGeometry relative="1" as="geometry" />
        </mxCell>
        <mxCell id="4S39HdtD1xha4Gsc1qkG-4" value="Project" style="rounded=0;whiteSpace=wrap;html=1;" parent="1" vertex="1">
          <mxGeometry x="100" y="340" width="120" height="60" as="geometry" />
        </mxCell>
        <mxCell id="4S39HdtD1xha4Gsc1qkG-6" value="Dependant" style="shape=ext;margin=3;double=1;whiteSpace=wrap;html=1;align=center;shadow=0;gradientColor=none;" parent="1" vertex="1">
          <mxGeometry x="570" y="350" width="120" height="60" as="geometry" />
        </mxCell>
        <mxCell id="4S39HdtD1xha4Gsc1qkG-12" value="" style="edgeStyle=orthogonalEdgeStyle;rounded=0;orthogonalLoop=1;jettySize=auto;html=1;shape=link;" parent="1" source="4S39HdtD1xha4Gsc1qkG-7" target="4S39HdtD1xha4Gsc1qkG-6" edge="1">
          <mxGeometry relative="1" as="geometry" />
        </mxCell>
        <mxCell id="4S39HdtD1xha4Gsc1qkG-7" value="" style="shape=rhombus;double=1;perimeter=rhombusPerimeter;whiteSpace=wrap;html=1;align=center;shadow=0;gradientColor=none;" parent="1" vertex="1">
          <mxGeometry x="570" y="230" width="120" height="60" as="geometry" />
        </mxCell>
        <mxCell id="4S39HdtD1xha4Gsc1qkG-19" style="rounded=0;orthogonalLoop=1;jettySize=auto;html=1;exitX=1;exitY=1;exitDx=0;exitDy=0;entryX=0;entryY=0;entryDx=0;entryDy=0;endArrow=none;endFill=0;" parent="1" source="4S39HdtD1xha4Gsc1qkG-15" target="4S39HdtD1xha4Gsc1qkG-1" edge="1">
          <mxGeometry relative="1" as="geometry" />
        </mxCell>
        <mxCell id="4S39HdtD1xha4Gsc1qkG-15" value="Name" style="ellipse;whiteSpace=wrap;html=1;align=center;fontStyle=4;shadow=0;gradientColor=none;" parent="1" vertex="1">
          <mxGeometry x="-50" y="60" width="100" height="40" as="geometry" />
        </mxCell>
        <mxCell id="4S39HdtD1xha4Gsc1qkG-20" style="edgeStyle=none;rounded=0;orthogonalLoop=1;jettySize=auto;html=1;exitX=0.5;exitY=1;exitDx=0;exitDy=0;endArrow=none;endFill=0;" parent="1" source="4S39HdtD1xha4Gsc1qkG-16" target="4S39HdtD1xha4Gsc1qkG-1" edge="1">
          <mxGeometry relative="1" as="geometry" />
        </mxCell>
        <mxCell id="4S39HdtD1xha4Gsc1qkG-16" value="Number" style="ellipse;whiteSpace=wrap;html=1;align=center;fontStyle=4;shadow=0;gradientColor=none;" parent="1" vertex="1">
          <mxGeometry x="60" y="40" width="100" height="40" as="geometry" />
        </mxCell>
        <mxCell id="4S39HdtD1xha4Gsc1qkG-21" style="edgeStyle=none;rounded=0;orthogonalLoop=1;jettySize=auto;html=1;exitX=0.5;exitY=1;exitDx=0;exitDy=0;entryX=0.5;entryY=0;entryDx=0;entryDy=0;endArrow=none;endFill=0;" parent="1" source="4S39HdtD1xha4Gsc1qkG-18" target="4S39HdtD1xha4Gsc1qkG-1" edge="1">
          <mxGeometry relative="1" as="geometry" />
        </mxCell>
        <mxCell id="4S39HdtD1xha4Gsc1qkG-18" value="Locations" style="ellipse;shape=doubleEllipse;margin=3;whiteSpace=wrap;html=1;align=center;shadow=0;gradientColor=none;" parent="1" vertex="1">
          <mxGeometry x="180" y="40" width="100" height="40" as="geometry" />
        </mxCell>
        <mxCell id="4S39HdtD1xha4Gsc1qkG-25" style="edgeStyle=none;rounded=0;orthogonalLoop=1;jettySize=auto;html=1;exitX=1;exitY=0.5;exitDx=0;exitDy=0;entryX=0;entryY=0.5;entryDx=0;entryDy=0;endArrow=none;endFill=0;" parent="1" source="4S39HdtD1xha4Gsc1qkG-22" target="4S39HdtD1xha4Gsc1qkG-4" edge="1">
          <mxGeometry relative="1" as="geometry" />
        </mxCell>
        <mxCell id="4S39HdtD1xha4Gsc1qkG-22" value="Name" style="ellipse;whiteSpace=wrap;html=1;align=center;fontStyle=4;shadow=0;gradientColor=none;" parent="1" vertex="1">
          <mxGeometry x="-70" y="370" width="100" height="40" as="geometry" />
        </mxCell>
        <mxCell id="4S39HdtD1xha4Gsc1qkG-29" style="edgeStyle=none;rounded=0;orthogonalLoop=1;jettySize=auto;html=1;exitX=0.5;exitY=0;exitDx=0;exitDy=0;entryX=0;entryY=1;entryDx=0;entryDy=0;endArrow=none;endFill=0;" parent="1" source="4S39HdtD1xha4Gsc1qkG-23" target="4S39HdtD1xha4Gsc1qkG-4" edge="1">
          <mxGeometry relative="1" as="geometry" />
        </mxCell>
        <mxCell id="4S39HdtD1xha4Gsc1qkG-23" value="Number" style="ellipse;whiteSpace=wrap;html=1;align=center;fontStyle=4;shadow=0;gradientColor=none;" parent="1" vertex="1">
          <mxGeometry x="-40" y="440" width="100" height="40" as="geometry" />
        </mxCell>
        <mxCell id="4S39HdtD1xha4Gsc1qkG-28" style="edgeStyle=none;rounded=0;orthogonalLoop=1;jettySize=auto;html=1;exitX=0.5;exitY=0;exitDx=0;exitDy=0;endArrow=none;endFill=0;entryX=0.15;entryY=0.983;entryDx=0;entryDy=0;entryPerimeter=0;" parent="1" source="4S39HdtD1xha4Gsc1qkG-24" target="4S39HdtD1xha4Gsc1qkG-4" edge="1">
          <mxGeometry relative="1" as="geometry">
            <mxPoint x="130" y="440" as="targetPoint" />
          </mxGeometry>
        </mxCell>
        <mxCell id="4S39HdtD1xha4Gsc1qkG-24" value="Location" style="ellipse;whiteSpace=wrap;html=1;align=center;shadow=0;gradientColor=none;" parent="1" vertex="1">
          <mxGeometry x="90" y="470" width="100" height="40" as="geometry" />
        </mxCell>
        <mxCell id="4S39HdtD1xha4Gsc1qkG-30" style="edgeStyle=none;rounded=0;orthogonalLoop=1;jettySize=auto;html=1;exitX=1;exitY=0;exitDx=0;exitDy=0;endArrow=none;endFill=0;" parent="1" source="4S39HdtD1xha4Gsc1qkG-23" target="4S39HdtD1xha4Gsc1qkG-23" edge="1">
          <mxGeometry relative="1" as="geometry" />
        </mxCell>
        <mxCell id="4S39HdtD1xha4Gsc1qkG-43" style="edgeStyle=none;rounded=0;orthogonalLoop=1;jettySize=auto;html=1;exitX=0;exitY=0.5;exitDx=0;exitDy=0;entryX=1;entryY=0.25;entryDx=0;entryDy=0;endArrow=none;endFill=0;" parent="1" source="4S39HdtD1xha4Gsc1qkG-31" target="4S39HdtD1xha4Gsc1qkG-2" edge="1">
          <mxGeometry relative="1" as="geometry" />
        </mxCell>
        <mxCell id="4S39HdtD1xha4Gsc1qkG-31" value="SSN" style="ellipse;whiteSpace=wrap;html=1;align=center;fontStyle=4;shadow=0;gradientColor=none;" parent="1" vertex="1">
          <mxGeometry x="700" y="110" width="100" height="40" as="geometry" />
        </mxCell>
        <mxCell id="4S39HdtD1xha4Gsc1qkG-42" style="edgeStyle=none;rounded=0;orthogonalLoop=1;jettySize=auto;html=1;exitX=0;exitY=0.5;exitDx=0;exitDy=0;entryX=0.925;entryY=0.033;entryDx=0;entryDy=0;entryPerimeter=0;endArrow=none;endFill=0;" parent="1" source="4S39HdtD1xha4Gsc1qkG-32" target="4S39HdtD1xha4Gsc1qkG-2" edge="1">
          <mxGeometry relative="1" as="geometry" />
        </mxCell>
        <mxCell id="4S39HdtD1xha4Gsc1qkG-32" value="Name" style="ellipse;whiteSpace=wrap;html=1;align=center;shadow=0;gradientColor=none;" parent="1" vertex="1">
          <mxGeometry x="700" y="70" width="100" height="40" as="geometry" />
        </mxCell>
        <mxCell id="4S39HdtD1xha4Gsc1qkG-38" style="edgeStyle=none;rounded=0;orthogonalLoop=1;jettySize=auto;html=1;exitX=1;exitY=0.5;exitDx=0;exitDy=0;entryX=0.008;entryY=0.4;entryDx=0;entryDy=0;entryPerimeter=0;endArrow=none;endFill=0;" parent="1" source="4S39HdtD1xha4Gsc1qkG-33" target="4S39HdtD1xha4Gsc1qkG-2" edge="1">
          <mxGeometry relative="1" as="geometry" />
        </mxCell>
        <mxCell id="4S39HdtD1xha4Gsc1qkG-33" value="Address" style="ellipse;whiteSpace=wrap;html=1;align=center;shadow=0;gradientColor=none;" parent="1" vertex="1">
          <mxGeometry x="430" y="60" width="100" height="40" as="geometry" />
        </mxCell>
        <mxCell id="4S39HdtD1xha4Gsc1qkG-41" style="edgeStyle=none;rounded=0;orthogonalLoop=1;jettySize=auto;html=1;exitX=0.5;exitY=1;exitDx=0;exitDy=0;endArrow=none;endFill=0;" parent="1" source="4S39HdtD1xha4Gsc1qkG-34" target="4S39HdtD1xha4Gsc1qkG-2" edge="1">
          <mxGeometry relative="1" as="geometry" />
        </mxCell>
        <mxCell id="4S39HdtD1xha4Gsc1qkG-34" value="Sex" style="ellipse;whiteSpace=wrap;html=1;align=center;shadow=0;gradientColor=none;" parent="1" vertex="1">
          <mxGeometry x="660" y="20" width="100" height="40" as="geometry" />
        </mxCell>
        <mxCell id="4S39HdtD1xha4Gsc1qkG-40" style="edgeStyle=none;rounded=0;orthogonalLoop=1;jettySize=auto;html=1;exitX=0.5;exitY=1;exitDx=0;exitDy=0;entryX=0.25;entryY=0;entryDx=0;entryDy=0;endArrow=none;endFill=0;" parent="1" source="4S39HdtD1xha4Gsc1qkG-35" target="4S39HdtD1xha4Gsc1qkG-2" edge="1">
          <mxGeometry relative="1" as="geometry" />
        </mxCell>
        <mxCell id="4S39HdtD1xha4Gsc1qkG-35" value="Salary" style="ellipse;whiteSpace=wrap;html=1;align=center;shadow=0;gradientColor=none;" parent="1" vertex="1">
          <mxGeometry x="550" y="10" width="100" height="40" as="geometry" />
        </mxCell>
        <mxCell id="4S39HdtD1xha4Gsc1qkG-39" style="edgeStyle=none;rounded=0;orthogonalLoop=1;jettySize=auto;html=1;exitX=1;exitY=1;exitDx=0;exitDy=0;entryX=0.058;entryY=0.033;entryDx=0;entryDy=0;entryPerimeter=0;endArrow=none;endFill=0;" parent="1" source="4S39HdtD1xha4Gsc1qkG-36" target="4S39HdtD1xha4Gsc1qkG-2" edge="1">
          <mxGeometry relative="1" as="geometry" />
        </mxCell>
        <mxCell id="4S39HdtD1xha4Gsc1qkG-36" value="Birthdate" style="ellipse;whiteSpace=wrap;html=1;align=center;shadow=0;gradientColor=none;" parent="1" vertex="1">
          <mxGeometry x="440" y="10" width="100" height="40" as="geometry" />
        </mxCell>
        <mxCell id="4S39HdtD1xha4Gsc1qkG-37" style="edgeStyle=none;rounded=0;orthogonalLoop=1;jettySize=auto;html=1;exitX=1;exitY=1;exitDx=0;exitDy=0;endArrow=none;endFill=0;" parent="1" source="4S39HdtD1xha4Gsc1qkG-35" target="4S39HdtD1xha4Gsc1qkG-35" edge="1">
          <mxGeometry relative="1" as="geometry" />
        </mxCell>
        <mxCell id="4S39HdtD1xha4Gsc1qkG-51" style="edgeStyle=none;rounded=0;orthogonalLoop=1;jettySize=auto;html=1;exitX=0.5;exitY=0;exitDx=0;exitDy=0;entryX=0.125;entryY=1.033;entryDx=0;entryDy=0;entryPerimeter=0;endArrow=none;endFill=0;" parent="1" source="4S39HdtD1xha4Gsc1qkG-45" target="4S39HdtD1xha4Gsc1qkG-6" edge="1">
          <mxGeometry relative="1" as="geometry" />
        </mxCell>
        <mxCell id="4S39HdtD1xha4Gsc1qkG-45" value="Birthdate" style="ellipse;whiteSpace=wrap;html=1;align=center;shadow=0;gradientColor=none;" parent="1" vertex="1">
          <mxGeometry x="520" y="430" width="100" height="40" as="geometry" />
        </mxCell>
        <mxCell id="4S39HdtD1xha4Gsc1qkG-50" style="edgeStyle=none;rounded=0;orthogonalLoop=1;jettySize=auto;html=1;exitX=1;exitY=0.5;exitDx=0;exitDy=0;entryX=0;entryY=0.5;entryDx=0;entryDy=0;endArrow=none;endFill=0;" parent="1" source="4S39HdtD1xha4Gsc1qkG-46" target="4S39HdtD1xha4Gsc1qkG-6" edge="1">
          <mxGeometry relative="1" as="geometry" />
        </mxCell>
        <mxCell id="4S39HdtD1xha4Gsc1qkG-46" value="Relationship" style="ellipse;whiteSpace=wrap;html=1;align=center;shadow=0;gradientColor=none;" parent="1" vertex="1">
          <mxGeometry x="450" y="390" width="100" height="40" as="geometry" />
        </mxCell>
        <mxCell id="4S39HdtD1xha4Gsc1qkG-52" style="edgeStyle=none;rounded=0;orthogonalLoop=1;jettySize=auto;html=1;exitX=0.5;exitY=0;exitDx=0;exitDy=0;entryX=0.75;entryY=1;entryDx=0;entryDy=0;endArrow=none;endFill=0;" parent="1" source="4S39HdtD1xha4Gsc1qkG-47" target="4S39HdtD1xha4Gsc1qkG-6" edge="1">
          <mxGeometry relative="1" as="geometry" />
        </mxCell>
        <mxCell id="4S39HdtD1xha4Gsc1qkG-47" value="Sex" style="ellipse;whiteSpace=wrap;html=1;align=center;shadow=0;gradientColor=none;" parent="1" vertex="1">
          <mxGeometry x="630" y="420" width="100" height="40" as="geometry" />
        </mxCell>
        <mxCell id="4S39HdtD1xha4Gsc1qkG-49" style="edgeStyle=none;rounded=0;orthogonalLoop=1;jettySize=auto;html=1;exitX=0;exitY=0.5;exitDx=0;exitDy=0;entryX=1;entryY=0.5;entryDx=0;entryDy=0;endArrow=none;endFill=0;" parent="1" source="4S39HdtD1xha4Gsc1qkG-48" target="4S39HdtD1xha4Gsc1qkG-6" edge="1">
          <mxGeometry relative="1" as="geometry" />
        </mxCell>
        <mxCell id="4S39HdtD1xha4Gsc1qkG-48" value="&lt;span style=&quot;border-bottom: 1px dotted&quot;&gt;Name&lt;/span&gt;" style="ellipse;whiteSpace=wrap;html=1;align=center;shadow=0;gradientColor=none;" parent="1" vertex="1">
          <mxGeometry x="700" y="370" width="100" height="40" as="geometry" />
        </mxCell>
        <mxCell id="4S39HdtD1xha4Gsc1qkG-55" style="edgeStyle=none;rounded=0;orthogonalLoop=1;jettySize=auto;html=1;exitX=0;exitY=0.5;exitDx=0;exitDy=0;entryX=1;entryY=0.5;entryDx=0;entryDy=0;endArrow=none;endFill=0;" parent="1" source="4S39HdtD1xha4Gsc1qkG-53" target="4S39HdtD1xha4Gsc1qkG-1" edge="1">
          <mxGeometry relative="1" as="geometry" />
        </mxCell>
        <mxCell id="4S39HdtD1xha4Gsc1qkG-56" style="edgeStyle=none;rounded=0;orthogonalLoop=1;jettySize=auto;html=1;exitX=1;exitY=0.5;exitDx=0;exitDy=0;entryX=0;entryY=0.5;entryDx=0;entryDy=0;endArrow=none;endFill=0;" parent="1" source="4S39HdtD1xha4Gsc1qkG-53" target="4S39HdtD1xha4Gsc1qkG-2" edge="1">
          <mxGeometry relative="1" as="geometry" />
        </mxCell>
        <mxCell id="4S39HdtD1xha4Gsc1qkG-53" value="Manage" style="shape=rhombus;perimeter=rhombusPerimeter;whiteSpace=wrap;html=1;align=center;shadow=0;gradientColor=none;" parent="1" vertex="1">
          <mxGeometry x="300" y="80" width="120" height="60" as="geometry" />
        </mxCell>
        <mxCell id="4S39HdtD1xha4Gsc1qkG-54" style="edgeStyle=none;rounded=0;orthogonalLoop=1;jettySize=auto;html=1;exitX=1;exitY=0;exitDx=0;exitDy=0;endArrow=none;endFill=0;" parent="1" source="4S39HdtD1xha4Gsc1qkG-36" target="4S39HdtD1xha4Gsc1qkG-36" edge="1">
          <mxGeometry relative="1" as="geometry" />
        </mxCell>
        <mxCell id="4S39HdtD1xha4Gsc1qkG-58" style="edgeStyle=none;rounded=0;orthogonalLoop=1;jettySize=auto;html=1;exitX=0.5;exitY=0;exitDx=0;exitDy=0;endArrow=none;endFill=0;" parent="1" source="4S39HdtD1xha4Gsc1qkG-57" target="4S39HdtD1xha4Gsc1qkG-53" edge="1">
          <mxGeometry relative="1" as="geometry" />
        </mxCell>
        <mxCell id="4S39HdtD1xha4Gsc1qkG-57" value="Start Date" style="ellipse;whiteSpace=wrap;html=1;align=center;shadow=0;gradientColor=none;" parent="1" vertex="1">
          <mxGeometry x="310" y="40" width="80" height="30" as="geometry" />
        </mxCell>
        <mxCell id="4S39HdtD1xha4Gsc1qkG-60" style="edgeStyle=none;rounded=0;orthogonalLoop=1;jettySize=auto;html=1;exitX=0.5;exitY=1;exitDx=0;exitDy=0;entryX=0.5;entryY=0;entryDx=0;entryDy=0;endArrow=none;endFill=0;" parent="1" source="4S39HdtD1xha4Gsc1qkG-59" target="4S39HdtD1xha4Gsc1qkG-4" edge="1">
          <mxGeometry relative="1" as="geometry" />
        </mxCell>
        <mxCell id="4S39HdtD1xha4Gsc1qkG-61" style="edgeStyle=none;rounded=0;orthogonalLoop=1;jettySize=auto;html=1;exitX=0.5;exitY=0;exitDx=0;exitDy=0;entryX=0.5;entryY=1;entryDx=0;entryDy=0;endArrow=none;endFill=0;" parent="1" source="4S39HdtD1xha4Gsc1qkG-59" target="4S39HdtD1xha4Gsc1qkG-1" edge="1">
          <mxGeometry relative="1" as="geometry" />
        </mxCell>
        <mxCell id="4S39HdtD1xha4Gsc1qkG-59" value="Control" style="shape=rhombus;perimeter=rhombusPerimeter;whiteSpace=wrap;html=1;align=center;shadow=0;gradientColor=none;" parent="1" vertex="1">
          <mxGeometry x="100" y="230" width="120" height="60" as="geometry" />
        </mxCell>
        <mxCell id="4S39HdtD1xha4Gsc1qkG-63" style="edgeStyle=none;rounded=0;orthogonalLoop=1;jettySize=auto;html=1;exitX=1;exitY=0.5;exitDx=0;exitDy=0;entryX=0;entryY=0.5;entryDx=0;entryDy=0;endArrow=none;endFill=0;" parent="1" source="4S39HdtD1xha4Gsc1qkG-62" target="4S39HdtD1xha4Gsc1qkG-2" edge="1">
          <mxGeometry relative="1" as="geometry" />
        </mxCell>
        <mxCell id="4S39HdtD1xha4Gsc1qkG-64" style="edgeStyle=none;rounded=0;orthogonalLoop=1;jettySize=auto;html=1;exitX=0;exitY=0.5;exitDx=0;exitDy=0;entryX=1;entryY=0.5;entryDx=0;entryDy=0;endArrow=none;endFill=0;" parent="1" source="4S39HdtD1xha4Gsc1qkG-62" target="4S39HdtD1xha4Gsc1qkG-1" edge="1">
          <mxGeometry relative="1" as="geometry" />
        </mxCell>
        <mxCell id="4S39HdtD1xha4Gsc1qkG-62" value="Assigned" style="shape=rhombus;perimeter=rhombusPerimeter;whiteSpace=wrap;html=1;align=center;shadow=0;gradientColor=none;" parent="1" vertex="1">
          <mxGeometry x="305" y="160" width="120" height="60" as="geometry" />
        </mxCell>
        <mxCell id="4S39HdtD1xha4Gsc1qkG-67" style="edgeStyle=none;rounded=0;orthogonalLoop=1;jettySize=auto;html=1;exitX=1;exitY=0.5;exitDx=0;exitDy=0;entryX=0;entryY=0.5;entryDx=0;entryDy=0;endArrow=none;endFill=0;" parent="1" source="4S39HdtD1xha4Gsc1qkG-65" target="4S39HdtD1xha4Gsc1qkG-2" edge="1">
          <mxGeometry relative="1" as="geometry" />
        </mxCell>
        <mxCell id="4S39HdtD1xha4Gsc1qkG-65" value="Work on" style="shape=rhombus;perimeter=rhombusPerimeter;whiteSpace=wrap;html=1;align=center;shadow=0;gradientColor=none;" parent="1" vertex="1">
          <mxGeometry x="300" y="260" width="120" height="60" as="geometry" />
        </mxCell>
        <mxCell id="4S39HdtD1xha4Gsc1qkG-70" style="edgeStyle=none;rounded=0;orthogonalLoop=1;jettySize=auto;html=1;exitX=0.5;exitY=0;exitDx=0;exitDy=0;entryX=0.5;entryY=1;entryDx=0;entryDy=0;endArrow=none;endFill=0;" parent="1" source="4S39HdtD1xha4Gsc1qkG-69" target="4S39HdtD1xha4Gsc1qkG-65" edge="1">
          <mxGeometry relative="1" as="geometry" />
        </mxCell>
        <mxCell id="4S39HdtD1xha4Gsc1qkG-69" value="Hours" style="ellipse;whiteSpace=wrap;html=1;align=center;shadow=0;gradientColor=none;" parent="1" vertex="1">
          <mxGeometry x="350" y="330" width="100" height="40" as="geometry" />
        </mxCell>
        <mxCell id="4S39HdtD1xha4Gsc1qkG-73" style="edgeStyle=none;rounded=0;orthogonalLoop=1;jettySize=auto;html=1;exitX=0.5;exitY=0;exitDx=0;exitDy=0;entryX=1;entryY=0.75;entryDx=0;entryDy=0;endArrow=none;endFill=0;" parent="1" source="4S39HdtD1xha4Gsc1qkG-72" target="4S39HdtD1xha4Gsc1qkG-2" edge="1">
          <mxGeometry relative="1" as="geometry" />
        </mxCell>
        <mxCell id="4S39HdtD1xha4Gsc1qkG-74" style="edgeStyle=none;rounded=0;orthogonalLoop=1;jettySize=auto;html=1;exitX=0;exitY=0.5;exitDx=0;exitDy=0;endArrow=none;endFill=0;" parent="1" source="4S39HdtD1xha4Gsc1qkG-72" target="4S39HdtD1xha4Gsc1qkG-2" edge="1">
          <mxGeometry relative="1" as="geometry" />
        </mxCell>
        <mxCell id="4S39HdtD1xha4Gsc1qkG-72" value="Supervise" style="shape=rhombus;perimeter=rhombusPerimeter;whiteSpace=wrap;html=1;align=center;shadow=0;gradientColor=none;" parent="1" vertex="1">
          <mxGeometry x="660" y="170" width="120" height="60" as="geometry" />
        </mxCell>
      </root>
    </mxGraphModel>
  </diagram>
</mxfile>
